# This file uses centimeters as units for non-parametric coordinates.

mtllib barrel.mtl
g default
v 0.190211 -0.000000 -0.061803
v 0.161804 -0.000000 -0.117557
v 0.117557 -0.000000 -0.161803
v 0.061803 -0.000000 -0.190211
v 0.000000 -0.000000 -0.200000
v -0.061803 -0.000000 -0.190211
v -0.117557 -0.000000 -0.161803
v -0.161803 -0.000000 -0.117557
v -0.190211 -0.000000 -0.061803
v -0.200000 -0.000000 0.000000
v -0.190211 -0.000000 0.061803
v -0.161803 -0.000000 0.117557
v -0.117557 -0.000000 0.161803
v -0.061803 -0.000000 0.190211
v -0.000000 -0.000000 0.200000
v 0.061803 -0.000000 0.190211
v 0.117557 -0.000000 0.161803
v 0.161803 -0.000000 0.117557
v 0.190211 -0.000000 0.061803
v 0.200000 -0.000000 0.000000
v 0.227691 0.100000 -0.073600
v 0.193686 0.100000 -0.139996
v 0.140721 0.100000 -0.192687
v 0.073981 0.100000 -0.226518
v 0.000000 0.100000 -0.238175
v -0.073981 0.100000 -0.226518
v -0.140721 0.100000 -0.192687
v -0.193686 0.100000 -0.139996
v -0.227691 0.100000 -0.073600
v -0.239409 0.100000 0.000000
v -0.227691 0.100000 0.073600
v -0.193686 0.100000 0.139995
v -0.140721 0.100000 0.192687
v -0.073981 0.100000 0.226517
v -0.000000 0.100000 0.238175
v 0.073981 0.100000 0.226517
v 0.140721 0.100000 0.192687
v 0.193686 0.100000 0.139995
v 0.227691 0.100000 0.073600
v 0.239409 0.100000 0.000000
v 0.251806 0.200000 -0.081878
v 0.214199 0.200000 -0.155741
v 0.155625 0.200000 -0.214359
v 0.081817 0.200000 -0.251994
v 0.000000 0.200000 -0.264962
v -0.081817 0.200000 -0.251994
v -0.155625 0.200000 -0.214359
v -0.214199 0.200000 -0.155741
v -0.251806 0.200000 -0.081878
v -0.264765 0.200000 0.000000
v -0.251806 0.200000 0.081878
v -0.214199 0.200000 0.155741
v -0.155625 0.200000 0.214359
v -0.081817 0.200000 0.251994
v -0.000000 0.200000 0.264962
v 0.081817 0.200000 0.251994
v 0.155625 0.200000 0.214359
v 0.214199 0.200000 0.155741
v 0.251806 0.200000 0.081878
v 0.264764 0.200000 0.000000
v 0.259108 0.300000 -0.084293
v 0.220411 0.300000 -0.160334
v 0.160138 0.300000 -0.220681
v 0.084189 0.300000 -0.259426
v 0.000000 0.300000 -0.272777
v -0.084189 0.300000 -0.259426
v -0.160138 0.300000 -0.220681
v -0.220410 0.300000 -0.160334
v -0.259108 0.300000 -0.084293
v -0.272442 0.300000 0.000000
v -0.259108 0.300000 0.084293
v -0.220410 0.300000 0.160334
v -0.160138 0.300000 0.220681
v -0.084189 0.300000 0.259426
v 0.000000 0.300000 0.272777
v 0.084189 0.300000 0.259426
v 0.160138 0.300000 0.220681
v 0.220410 0.300000 0.160334
v 0.259108 0.300000 0.084293
v 0.272442 0.300000 0.000000
v 0.251806 0.400000 -0.081878
v 0.214199 0.400000 -0.155741
v 0.155625 0.400000 -0.214359
v 0.081817 0.400000 -0.251994
v 0.000000 0.400000 -0.264962
v -0.081817 0.400000 -0.251994
v -0.155625 0.400000 -0.214359
v -0.214199 0.400000 -0.155741
v -0.251806 0.400000 -0.081878
v -0.264765 0.400000 0.000000
v -0.251806 0.400000 0.081878
v -0.214199 0.400000 0.155741
v -0.155625 0.400000 0.214359
v -0.081817 0.400000 0.251994
v -0.000000 0.400000 0.264962
v 0.081817 0.400000 0.251994
v 0.155625 0.400000 0.214359
v 0.214199 0.400000 0.155741
v 0.251806 0.400000 0.081878
v 0.264764 0.400000 0.000000
v 0.227691 0.500000 -0.073600
v 0.193686 0.500000 -0.139996
v 0.140721 0.500000 -0.192687
v 0.073981 0.500000 -0.226518
v 0.000000 0.500000 -0.238175
v -0.073981 0.500000 -0.226518
v -0.140721 0.500000 -0.192687
v -0.193686 0.500000 -0.139996
v -0.227691 0.500000 -0.073600
v -0.239409 0.500000 0.000000
v -0.227691 0.500000 0.073600
v -0.193686 0.500000 0.139995
v -0.140721 0.500000 0.192687
v -0.073981 0.500000 0.226517
v -0.000000 0.500000 0.238175
v 0.073981 0.500000 0.226517
v 0.140721 0.500000 0.192687
v 0.193686 0.500000 0.139995
v 0.227691 0.500000 0.073600
v 0.239409 0.500000 0.000000
v 0.190211 0.600000 -0.061803
v 0.161804 0.600000 -0.117557
v 0.117557 0.600000 -0.161803
v 0.061803 0.600000 -0.190211
v 0.000000 0.600000 -0.200000
v -0.061803 0.600000 -0.190211
v -0.117557 0.600000 -0.161803
v -0.161803 0.600000 -0.117557
v -0.190211 0.600000 -0.061803
v -0.200000 0.600000 0.000000
v -0.190211 0.600000 0.061803
v -0.161803 0.600000 0.117557
v -0.117557 0.600000 0.161803
v -0.061803 0.600000 0.190211
v -0.000000 0.600000 0.200000
v 0.061803 0.600000 0.190211
v 0.117557 0.600000 0.161803
v 0.161803 0.600000 0.117557
v 0.190211 0.600000 0.061803
v 0.200000 0.600000 0.000000
v 0.000000 -0.000000 0.000000
v 0.000000 0.600000 0.000000
vt 0.311113 0.127173
vt 0.288919 0.083615
vt 0.254351 0.049048
vt 0.210794 0.026854
vt 0.162510 0.019207
vt 0.114226 0.026854
vt 0.070668 0.049048
vt 0.036101 0.083615
vt 0.013907 0.127173
vt 0.006260 0.175457
vt 0.013907 0.223741
vt 0.036101 0.267298
vt 0.070668 0.301866
vt 0.114226 0.324059
vt 0.162510 0.331707
vt 0.210794 0.324059
vt 0.254351 0.301866
vt 0.288919 0.267298
vt 0.311113 0.223741
vt 0.318760 0.175457
vt 0.328970 0.006351
vt 0.362262 0.006351
vt 0.395553 0.006351
vt 0.428845 0.006351
vt 0.462136 0.006351
vt 0.495428 0.006351
vt 0.528719 0.006351
vt 0.562011 0.006351
vt 0.595302 0.006351
vt 0.628594 0.006351
vt 0.661885 0.006351
vt 0.695177 0.006351
vt 0.728468 0.006351
vt 0.761760 0.006351
vt 0.795051 0.006351
vt 0.828343 0.006351
vt 0.861634 0.006351
vt 0.894926 0.006351
vt 0.928218 0.006351
vt 0.961509 0.006351
vt 0.994800 0.006351
vt 0.328970 0.171057
vt 0.362262 0.171057
vt 0.395553 0.171057
vt 0.428845 0.171057
vt 0.462136 0.171057
vt 0.495428 0.171057
vt 0.528719 0.171057
vt 0.562011 0.171057
vt 0.595302 0.171057
vt 0.628594 0.171057
vt 0.661885 0.171057
vt 0.695177 0.171057
vt 0.728468 0.171057
vt 0.761760 0.171057
vt 0.795051 0.171057
vt 0.828343 0.171057
vt 0.861634 0.171057
vt 0.894926 0.171057
vt 0.928218 0.171057
vt 0.961509 0.171057
vt 0.994800 0.171057
vt 0.328970 0.335764
vt 0.362262 0.335764
vt 0.395553 0.335764
vt 0.428845 0.335764
vt 0.462136 0.335764
vt 0.495428 0.335764
vt 0.528719 0.335764
vt 0.562011 0.335764
vt 0.595302 0.335764
vt 0.628594 0.335764
vt 0.661885 0.335764
vt 0.695177 0.335764
vt 0.728468 0.335764
vt 0.761760 0.335764
vt 0.795051 0.335764
vt 0.828343 0.335764
vt 0.861634 0.335764
vt 0.894926 0.335764
vt 0.928218 0.335764
vt 0.961509 0.335764
vt 0.994800 0.335764
vt 0.328970 0.500470
vt 0.362262 0.500470
vt 0.395553 0.500470
vt 0.428845 0.500470
vt 0.462136 0.500470
vt 0.495428 0.500470
vt 0.528719 0.500470
vt 0.562011 0.500470
vt 0.595302 0.500470
vt 0.628594 0.500470
vt 0.661885 0.500470
vt 0.695177 0.500470
vt 0.728468 0.500470
vt 0.761760 0.500470
vt 0.795051 0.500470
vt 0.828343 0.500470
vt 0.861634 0.500470
vt 0.894926 0.500470
vt 0.928218 0.500470
vt 0.961509 0.500470
vt 0.994800 0.500470
vt 0.328970 0.665176
vt 0.362262 0.665176
vt 0.395553 0.665176
vt 0.428845 0.665176
vt 0.462136 0.665176
vt 0.495428 0.665176
vt 0.528719 0.665176
vt 0.562011 0.665176
vt 0.595302 0.665176
vt 0.628594 0.665176
vt 0.661885 0.665176
vt 0.695177 0.665176
vt 0.728468 0.665176
vt 0.761760 0.665176
vt 0.795051 0.665176
vt 0.828343 0.665176
vt 0.861634 0.665176
vt 0.894926 0.665176
vt 0.928218 0.665176
vt 0.961509 0.665176
vt 0.994800 0.665176
vt 0.328970 0.829883
vt 0.362262 0.829883
vt 0.395553 0.829883
vt 0.428845 0.829883
vt 0.462136 0.829883
vt 0.495428 0.829883
vt 0.528719 0.829883
vt 0.562011 0.829883
vt 0.595302 0.829883
vt 0.628594 0.829883
vt 0.661885 0.829883
vt 0.695177 0.829883
vt 0.728468 0.829883
vt 0.761760 0.829883
vt 0.795051 0.829883
vt 0.828343 0.829883
vt 0.861634 0.829883
vt 0.894926 0.829883
vt 0.928218 0.829883
vt 0.961509 0.829883
vt 0.994800 0.829883
vt 0.328970 0.994589
vt 0.362262 0.994589
vt 0.395553 0.994589
vt 0.428845 0.994589
vt 0.462136 0.994589
vt 0.495428 0.994589
vt 0.528719 0.994589
vt 0.562011 0.994589
vt 0.595302 0.994589
vt 0.628594 0.994589
vt 0.661885 0.994589
vt 0.695177 0.994589
vt 0.728468 0.994589
vt 0.761760 0.994589
vt 0.795051 0.994589
vt 0.828343 0.994589
vt 0.861634 0.994589
vt 0.894926 0.994589
vt 0.928218 0.994589
vt 0.961509 0.994589
vt 0.994800 0.994589
vt 0.311113 0.781747
vt 0.288919 0.738189
vt 0.254351 0.703622
vt 0.210794 0.681428
vt 0.162510 0.673781
vt 0.114226 0.681428
vt 0.070668 0.703622
vt 0.036101 0.738189
vt 0.013907 0.781747
vt 0.006260 0.830031
vt 0.013907 0.878315
vt 0.036101 0.921872
vt 0.070668 0.956440
vt 0.114226 0.978634
vt 0.162510 0.986281
vt 0.210794 0.978634
vt 0.254351 0.956440
vt 0.288919 0.921872
vt 0.311113 0.878315
vt 0.318760 0.830031
vt 0.162510 0.169207
vt 0.162510 0.823781
vn 0.884919 -0.365510 -0.288655
vn 0.752772 -0.363122 -0.549069
vn 0.770756 -0.302749 -0.560605
vn 0.906472 -0.302273 -0.294854
vn 0.546929 -0.360169 -0.755742
vn 0.559685 -0.303337 -0.771193
vn 0.287539 -0.357779 -0.888434
vn 0.294115 -0.303812 -0.906198
vn -0.000000 -0.356866 -0.934156
vn -0.000000 -0.303993 -0.952674
vn -0.287539 -0.357779 -0.888434
vn -0.294115 -0.303812 -0.906198
vn -0.546930 -0.360169 -0.755742
vn -0.559686 -0.303337 -0.771193
vn -0.752772 -0.363122 -0.549069
vn -0.770756 -0.302749 -0.560605
vn -0.884918 -0.365510 -0.288656
vn -0.906472 -0.302273 -0.294855
vn -0.930449 -0.366422 0.000000
vn -0.953279 -0.302091 0.000000
vn -0.884918 -0.365510 0.288656
vn -0.906472 -0.302273 0.294855
vn -0.752772 -0.363122 0.549069
vn -0.770756 -0.302749 0.560605
vn -0.546930 -0.360169 0.755742
vn -0.559685 -0.303337 0.771193
vn -0.287539 -0.357779 0.888434
vn -0.294115 -0.303812 0.906198
vn 0.000000 -0.356866 0.934155
vn 0.000000 -0.303993 0.952674
vn 0.287539 -0.357779 0.888434
vn 0.294115 -0.303812 0.906198
vn 0.546930 -0.360169 0.755742
vn 0.559685 -0.303337 0.771193
vn 0.752772 -0.363122 0.549069
vn 0.770756 -0.302749 0.560605
vn 0.884918 -0.365510 0.288656
vn 0.906472 -0.302273 0.294855
vn 0.930449 -0.366422 0.000001
vn 0.953279 -0.302091 0.000001
vn 0.798122 -0.161349 -0.580489
vn 0.938769 -0.159610 -0.305349
vn 0.579471 -0.163492 -0.798426
vn 0.304476 -0.165220 -0.938081
vn 0.000000 -0.165879 -0.986146
vn -0.304476 -0.165220 -0.938081
vn -0.579472 -0.163492 -0.798425
vn -0.798122 -0.161349 -0.580489
vn -0.938768 -0.159610 -0.305350
vn -0.987288 -0.158944 -0.000000
vn -0.938768 -0.159610 0.305351
vn -0.798122 -0.161349 0.580489
vn -0.579471 -0.163492 0.798425
vn -0.304476 -0.165220 0.938081
vn 0.000000 -0.165879 0.986146
vn 0.304476 -0.165220 0.938081
vn 0.579471 -0.163492 0.798426
vn 0.798122 -0.161349 0.580489
vn 0.938768 -0.159610 0.305350
vn 0.987288 -0.158944 0.000001
vn 0.809253 0.000000 -0.587460
vn 0.951134 0.000000 -0.308780
vn 0.588110 0.000000 -0.808781
vn 0.309253 0.000000 -0.950980
vn 0.000000 0.000000 -1.000000
vn -0.309253 0.000000 -0.950980
vn -0.588111 -0.000000 -0.808781
vn -0.809253 -0.000000 -0.587460
vn -0.951133 0.000000 -0.308781
vn -1.000000 -0.000000 0.000000
vn -0.951133 -0.000000 0.308781
vn -0.809253 0.000000 0.587460
vn -0.588110 0.000000 0.808781
vn -0.309253 0.000000 0.950980
vn -0.000000 0.000000 1.000000
vn 0.309253 0.000000 0.950980
vn 0.588110 0.000000 0.808781
vn 0.809253 -0.000000 0.587460
vn 0.951133 0.000000 0.308781
vn 1.000000 -0.000000 0.000001
vn 0.798122 0.161349 -0.580489
vn 0.938769 0.159610 -0.305350
vn 0.579471 0.163492 -0.798426
vn 0.304476 0.165220 -0.938081
vn -0.000000 0.165879 -0.986146
vn -0.304476 0.165220 -0.938081
vn -0.579472 0.163492 -0.798425
vn -0.798122 0.161349 -0.580489
vn -0.938768 0.159610 -0.305350
vn -0.987288 0.158944 -0.000000
vn -0.938768 0.159610 0.305351
vn -0.798122 0.161349 0.580489
vn -0.579471 0.163492 0.798426
vn -0.304476 0.165220 0.938081
vn 0.000000 0.165879 0.986146
vn 0.304476 0.165220 0.938081
vn 0.579471 0.163492 0.798426
vn 0.798122 0.161349 0.580489
vn 0.938768 0.159610 0.305350
vn 0.987288 0.158944 0.000001
vn 0.770756 0.302749 -0.560605
vn 0.906472 0.302273 -0.294854
vn 0.559685 0.303337 -0.771193
vn 0.294115 0.303812 -0.906198
vn -0.000000 0.303993 -0.952674
vn -0.294115 0.303812 -0.906198
vn -0.559686 0.303337 -0.771193
vn -0.770756 0.302749 -0.560605
vn -0.906472 0.302273 -0.294855
vn -0.953279 0.302091 -0.000000
vn -0.906472 0.302273 0.294855
vn -0.770756 0.302749 0.560605
vn -0.559685 0.303337 0.771193
vn -0.294115 0.303812 0.906198
vn 0.000000 0.303993 0.952674
vn 0.294116 0.303812 0.906198
vn 0.559685 0.303337 0.771193
vn 0.770756 0.302749 0.560605
vn 0.906472 0.302273 0.294855
vn 0.953279 0.302091 0.000001
vn 0.752772 0.363122 -0.549069
vn 0.884919 0.365510 -0.288655
vn 0.546929 0.360169 -0.755742
vn 0.287539 0.357779 -0.888434
vn -0.000000 0.356866 -0.934156
vn -0.287539 0.357779 -0.888434
vn -0.546930 0.360169 -0.755742
vn -0.752772 0.363122 -0.549069
vn -0.884918 0.365510 -0.288656
vn -0.930449 0.366421 -0.000000
vn -0.884918 0.365510 0.288656
vn -0.752772 0.363122 0.549069
vn -0.546930 0.360169 0.755742
vn -0.287539 0.357779 0.888434
vn 0.000000 0.356866 0.934156
vn 0.287540 0.357779 0.888434
vn 0.546930 0.360169 0.755742
vn 0.752772 0.363122 0.549069
vn 0.884918 0.365510 0.288656
vn 0.930449 0.366422 0.000001
vn 0.000000 -1.000000 0.000000
vn 0.000000 -1.000000 0.000000
vn 0.000000 -1.000000 0.000000
vn 0.000000 -1.000000 -0.000000
vn 0.000000 -1.000000 0.000000
vn 0.000000 -1.000000 0.000000
vn 0.000000 -1.000000 0.000000
vn 0.000000 -1.000000 0.000000
vn 0.000000 -1.000000 0.000000
vn 0.000000 -1.000000 0.000000
vn 0.000000 -1.000000 0.000000
vn 0.000000 -1.000000 -0.000000
vn 0.000000 -1.000000 -0.000000
vn 0.000000 -1.000000 0.000000
vn 0.000000 -1.000000 0.000000
vn 0.000000 -1.000000 0.000000
vn 0.000000 -1.000000 0.000000
vn 0.000000 -1.000000 0.000000
vn 0.000000 -1.000000 0.000000
vn 0.000000 -1.000000 0.000000
vn 0.000000 -1.000000 -0.000000
vn 0.000000 1.000000 0.000000
vn 0.000000 1.000000 0.000000
vn 0.000000 1.000000 -0.000000
vn 0.000000 1.000000 -0.000000
vn 0.000000 1.000000 0.000000
vn 0.000000 1.000000 0.000000
vn 0.000000 1.000000 0.000000
vn 0.000000 1.000000 0.000000
vn 0.000000 1.000000 0.000000
vn 0.000000 1.000000 0.000000
vn 0.000000 1.000000 0.000000
vn 0.000000 1.000000 -0.000000
vn 0.000000 1.000000 -0.000000
vn 0.000000 1.000000 0.000000
vn 0.000000 1.000000 0.000000
vn 0.000000 1.000000 0.000000
vn 0.000000 1.000000 -0.000000
vn 0.000000 1.000000 -0.000000
vn 0.000000 1.000000 0.000000
vn 0.000000 1.000000 -0.000000
vn 0.000000 1.000000 -0.000000
s 1
g pCylinder1
usemtl initialShadingGroup
f 1/21/1 2/22/2 22/43/3 21/42/4
f 2/22/2 3/23/5 23/44/6 22/43/3
f 3/23/5 4/24/7 24/45/8 23/44/6
f 4/24/7 5/25/9 25/46/10 24/45/8
f 5/25/9 6/26/11 26/47/12 25/46/10
f 6/26/11 7/27/13 27/48/14 26/47/12
f 7/27/13 8/28/15 28/49/16 27/48/14
f 8/28/15 9/29/17 29/50/18 28/49/16
f 9/29/17 10/30/19 30/51/20 29/50/18
f 10/30/19 11/31/21 31/52/22 30/51/20
f 11/31/21 12/32/23 32/53/24 31/52/22
f 12/32/23 13/33/25 33/54/26 32/53/24
f 13/33/25 14/34/27 34/55/28 33/54/26
f 14/34/27 15/35/29 35/56/30 34/55/28
f 15/35/29 16/36/31 36/57/32 35/56/30
f 16/36/31 17/37/33 37/58/34 36/57/32
f 17/37/33 18/38/35 38/59/36 37/58/34
f 18/38/35 19/39/37 39/60/38 38/59/36
f 19/39/37 20/40/39 40/61/40 39/60/38
f 20/40/39 1/41/1 21/62/4 40/61/40
f 21/42/4 22/43/3 42/64/41 41/63/42
f 22/43/3 23/44/6 43/65/43 42/64/41
f 23/44/6 24/45/8 44/66/44 43/65/43
f 24/45/8 25/46/10 45/67/45 44/66/44
f 25/46/10 26/47/12 46/68/46 45/67/45
f 26/47/12 27/48/14 47/69/47 46/68/46
f 27/48/14 28/49/16 48/70/48 47/69/47
f 28/49/16 29/50/18 49/71/49 48/70/48
f 29/50/18 30/51/20 50/72/50 49/71/49
f 30/51/20 31/52/22 51/73/51 50/72/50
f 31/52/22 32/53/24 52/74/52 51/73/51
f 32/53/24 33/54/26 53/75/53 52/74/52
f 33/54/26 34/55/28 54/76/54 53/75/53
f 34/55/28 35/56/30 55/77/55 54/76/54
f 35/56/30 36/57/32 56/78/56 55/77/55
f 36/57/32 37/58/34 57/79/57 56/78/56
f 37/58/34 38/59/36 58/80/58 57/79/57
f 38/59/36 39/60/38 59/81/59 58/80/58
f 39/60/38 40/61/40 60/82/60 59/81/59
f 40/61/40 21/62/4 41/83/42 60/82/60
f 41/63/42 42/64/41 62/85/61 61/84/62
f 42/64/41 43/65/43 63/86/63 62/85/61
f 43/65/43 44/66/44 64/87/64 63/86/63
f 44/66/44 45/67/45 65/88/65 64/87/64
f 45/67/45 46/68/46 66/89/66 65/88/65
f 46/68/46 47/69/47 67/90/67 66/89/66
f 47/69/47 48/70/48 68/91/68 67/90/67
f 48/70/48 49/71/49 69/92/69 68/91/68
f 49/71/49 50/72/50 70/93/70 69/92/69
f 50/72/50 51/73/51 71/94/71 70/93/70
f 51/73/51 52/74/52 72/95/72 71/94/71
f 52/74/52 53/75/53 73/96/73 72/95/72
f 53/75/53 54/76/54 74/97/74 73/96/73
f 54/76/54 55/77/55 75/98/75 74/97/74
f 55/77/55 56/78/56 76/99/76 75/98/75
f 56/78/56 57/79/57 77/100/77 76/99/76
f 57/79/57 58/80/58 78/101/78 77/100/77
f 58/80/58 59/81/59 79/102/79 78/101/78
f 59/81/59 60/82/60 80/103/80 79/102/79
f 60/82/60 41/83/42 61/104/62 80/103/80
f 61/84/62 62/85/61 82/106/81 81/105/82
f 62/85/61 63/86/63 83/107/83 82/106/81
f 63/86/63 64/87/64 84/108/84 83/107/83
f 64/87/64 65/88/65 85/109/85 84/108/84
f 65/88/65 66/89/66 86/110/86 85/109/85
f 66/89/66 67/90/67 87/111/87 86/110/86
f 67/90/67 68/91/68 88/112/88 87/111/87
f 68/91/68 69/92/69 89/113/89 88/112/88
f 69/92/69 70/93/70 90/114/90 89/113/89
f 70/93/70 71/94/71 91/115/91 90/114/90
f 71/94/71 72/95/72 92/116/92 91/115/91
f 72/95/72 73/96/73 93/117/93 92/116/92
f 73/96/73 74/97/74 94/118/94 93/117/93
f 74/97/74 75/98/75 95/119/95 94/118/94
f 75/98/75 76/99/76 96/120/96 95/119/95
f 76/99/76 77/100/77 97/121/97 96/120/96
f 77/100/77 78/101/78 98/122/98 97/121/97
f 78/101/78 79/102/79 99/123/99 98/122/98
f 79/102/79 80/103/80 100/124/100 99/123/99
f 80/103/80 61/104/62 81/125/82 100/124/100
f 81/105/82 82/106/81 102/127/101 101/126/102
f 82/106/81 83/107/83 103/128/103 102/127/101
f 83/107/83 84/108/84 104/129/104 103/128/103
f 84/108/84 85/109/85 105/130/105 104/129/104
f 85/109/85 86/110/86 106/131/106 105/130/105
f 86/110/86 87/111/87 107/132/107 106/131/106
f 87/111/87 88/112/88 108/133/108 107/132/107
f 88/112/88 89/113/89 109/134/109 108/133/108
f 89/113/89 90/114/90 110/135/110 109/134/109
f 90/114/90 91/115/91 111/136/111 110/135/110
f 91/115/91 92/116/92 112/137/112 111/136/111
f 92/116/92 93/117/93 113/138/113 112/137/112
f 93/117/93 94/118/94 114/139/114 113/138/113
f 94/118/94 95/119/95 115/140/115 114/139/114
f 95/119/95 96/120/96 116/141/116 115/140/115
f 96/120/96 97/121/97 117/142/117 116/141/116
f 97/121/97 98/122/98 118/143/118 117/142/117
f 98/122/98 99/123/99 119/144/119 118/143/118
f 99/123/99 100/124/100 120/145/120 119/144/119
f 100/124/100 81/125/82 101/146/102 120/145/120
f 101/126/102 102/127/101 122/148/121 121/147/122
f 102/127/101 103/128/103 123/149/123 122/148/121
f 103/128/103 104/129/104 124/150/124 123/149/123
f 104/129/104 105/130/105 125/151/125 124/150/124
f 105/130/105 106/131/106 126/152/126 125/151/125
f 106/131/106 107/132/107 127/153/127 126/152/126
f 107/132/107 108/133/108 128/154/128 127/153/127
f 108/133/108 109/134/109 129/155/129 128/154/128
f 109/134/109 110/135/110 130/156/130 129/155/129
f 110/135/110 111/136/111 131/157/131 130/156/130
f 111/136/111 112/137/112 132/158/132 131/157/131
f 112/137/112 113/138/113 133/159/133 132/158/132
f 113/138/113 114/139/114 134/160/134 133/159/133
f 114/139/114 115/140/115 135/161/135 134/160/134
f 115/140/115 116/141/116 136/162/136 135/161/135
f 116/141/116 117/142/117 137/163/137 136/162/136
f 117/142/117 118/143/118 138/164/138 137/163/137
f 118/143/118 119/144/119 139/165/139 138/164/138
f 119/144/119 120/145/120 140/166/140 139/165/139
f 120/145/120 101/146/102 121/167/122 140/166/140
s 2
f 2/2/141 1/1/142 141/188/143
f 3/3/144 2/2/141 141/188/143
f 4/4/145 3/3/144 141/188/143
f 5/5/146 4/4/145 141/188/143
f 6/6/147 5/5/146 141/188/143
f 7/7/148 6/6/147 141/188/143
f 8/8/149 7/7/148 141/188/143
f 9/9/150 8/8/149 141/188/143
f 10/10/151 9/9/150 141/188/143
f 11/11/152 10/10/151 141/188/143
f 12/12/153 11/11/152 141/188/143
f 13/13/154 12/12/153 141/188/143
f 14/14/155 13/13/154 141/188/143
f 15/15/156 14/14/155 141/188/143
f 16/16/157 15/15/156 141/188/143
f 17/17/158 16/16/157 141/188/143
f 18/18/159 17/17/158 141/188/143
f 19/19/160 18/18/159 141/188/143
f 20/20/161 19/19/160 141/188/143
f 1/1/142 20/20/161 141/188/143
s 3
f 121/186/162 122/185/163 142/189/164
f 122/185/163 123/184/165 142/189/164
f 123/184/165 124/183/166 142/189/164
f 124/183/166 125/182/167 142/189/164
f 125/182/167 126/181/168 142/189/164
f 126/181/168 127/180/169 142/189/164
f 127/180/169 128/179/170 142/189/164
f 128/179/170 129/178/171 142/189/164
f 129/178/171 130/177/172 142/189/164
f 130/177/172 131/176/173 142/189/164
f 131/176/173 132/175/174 142/189/164
f 132/175/174 133/174/175 142/189/164
f 133/174/175 134/173/176 142/189/164
f 134/173/176 135/172/177 142/189/164
f 135/172/177 136/171/178 142/189/164
f 136/171/178 137/170/179 142/189/164
f 137/170/179 138/169/180 142/189/164
f 138/169/180 139/168/181 142/189/164
f 139/168/181 140/187/182 142/189/164
f 140/187/182 121/186/162 142/189/164
