# This file uses centimeters as units for non-parametric coordinates.

mtllib box.mtl
g default
v -0.500000 0.000000 0.500000
v -0.406667 0.000000 0.500000
v -0.375539 0.000000 0.500000
v 0.375539 0.000000 0.500000
v 0.406667 0.000000 0.500000
v 0.500000 0.000000 0.500000
v -0.500000 0.091194 0.500000
v -0.406667 0.091194 0.500000
v -0.375539 0.091194 0.500000
v 0.375539 0.091194 0.500000
v 0.406667 0.091194 0.500000
v 0.500000 0.091194 0.500000
v -0.500000 0.121631 0.500000
v -0.406667 0.121631 0.500000
v -0.375539 0.121631 0.479650
v 0.375539 0.121631 0.479650
v 0.406667 0.121631 0.500000
v 0.500000 0.121631 0.500000
v -0.500000 0.878369 0.500000
v -0.406667 0.878369 0.500000
v -0.375539 0.878369 0.479650
v 0.375539 0.878369 0.479650
v 0.406667 0.878369 0.500000
v 0.500000 0.878369 0.500000
v -0.500000 0.908806 0.500000
v -0.406667 0.908806 0.500000
v -0.375539 0.908806 0.500000
v 0.375539 0.908806 0.500000
v 0.406667 0.908806 0.500000
v 0.500000 0.908806 0.500000
v -0.500000 1.000000 0.500000
v -0.406667 1.000000 0.500000
v -0.375539 1.000000 0.500000
v 0.375539 1.000000 0.500000
v 0.406667 1.000000 0.500000
v 0.500000 1.000000 0.500000
v -0.500000 1.000000 0.406667
v -0.406667 1.000000 0.406667
v -0.375539 1.000000 0.406667
v 0.375539 1.000000 0.406667
v 0.406667 1.000000 0.406667
v 0.500000 1.000000 0.406667
v -0.500000 1.000000 0.375539
v -0.406667 1.000000 0.375539
v -0.375539 0.977371 0.375539
v 0.375539 0.977371 0.375539
v 0.406667 1.000000 0.375539
v 0.500000 1.000000 0.375539
v -0.500000 1.000000 -0.375539
v -0.406667 1.000000 -0.375539
v -0.375539 0.977371 -0.375539
v 0.375539 0.977371 -0.375539
v 0.406667 1.000000 -0.375539
v 0.500000 1.000000 -0.375539
v -0.500000 1.000000 -0.406667
v -0.406667 1.000000 -0.406667
v -0.375539 1.000000 -0.406667
v 0.375539 1.000000 -0.406667
v 0.406667 1.000000 -0.406667
v 0.500000 1.000000 -0.406667
v -0.500000 1.000000 -0.500000
v -0.406667 1.000000 -0.500000
v -0.375539 1.000000 -0.500000
v 0.375539 1.000000 -0.500000
v 0.406667 1.000000 -0.500000
v 0.500000 1.000000 -0.500000
v -0.500000 0.908806 -0.500000
v -0.406667 0.908806 -0.500000
v -0.375539 0.908806 -0.500000
v 0.375539 0.908806 -0.500000
v 0.406667 0.908806 -0.500000
v 0.500000 0.908806 -0.500000
v -0.500000 0.878369 -0.500000
v -0.406667 0.878369 -0.500000
v -0.375539 0.878369 -0.479650
v 0.375539 0.878369 -0.479650
v 0.406667 0.878369 -0.500000
v 0.500000 0.878369 -0.500000
v -0.500000 0.121631 -0.500000
v -0.406667 0.121631 -0.500000
v -0.375539 0.121631 -0.479650
v 0.375539 0.121631 -0.479650
v 0.406667 0.121631 -0.500000
v 0.500000 0.121631 -0.500000
v -0.500000 0.091194 -0.500000
v -0.406667 0.091194 -0.500000
v -0.375539 0.091194 -0.500000
v 0.375539 0.091194 -0.500000
v 0.406667 0.091194 -0.500000
v 0.500000 0.091194 -0.500000
v -0.500000 0.000000 -0.500000
v -0.406667 0.000000 -0.500000
v -0.375539 0.000000 -0.500000
v 0.375539 0.000000 -0.500000
v 0.406667 0.000000 -0.500000
v 0.500000 0.000000 -0.500000
v -0.500000 0.000000 -0.406667
v -0.406667 0.000000 -0.406667
v -0.375539 0.000000 -0.406667
v 0.375539 0.000000 -0.406667
v 0.406667 0.000000 -0.406667
v 0.500000 0.000000 -0.406667
v -0.500000 0.000000 -0.375539
v -0.406667 0.000000 -0.375539
v -0.375539 0.022629 -0.375539
v 0.375539 0.022629 -0.375539
v 0.406667 0.000000 -0.375539
v 0.500000 0.000000 -0.375539
v -0.500000 0.000000 0.375539
v -0.406667 0.000000 0.375539
v -0.375539 0.022629 0.375539
v 0.375539 0.022629 0.375539
v 0.406667 0.000000 0.375539
v 0.500000 0.000000 0.375539
v -0.500000 0.000000 0.406667
v -0.406667 0.000000 0.406667
v -0.375539 0.000000 0.406667
v 0.375539 0.000000 0.406667
v 0.406667 0.000000 0.406667
v 0.500000 0.000000 0.406667
v 0.500000 0.091194 -0.406667
v 0.500000 0.091194 -0.375539
v 0.500000 0.091194 0.375539
v 0.500000 0.091194 0.406667
v 0.500000 0.121631 -0.406667
v 0.477778 0.121631 -0.375539
v 0.477778 0.121631 0.375539
v 0.500000 0.121631 0.406667
v 0.500000 0.878369 -0.406667
v 0.477778 0.878369 -0.375539
v 0.477778 0.878369 0.375539
v 0.500000 0.878369 0.406667
v 0.500000 0.908806 -0.406667
v 0.500000 0.908806 -0.375539
v 0.500000 0.908806 0.375539
v 0.500000 0.908806 0.406667
v -0.500000 0.091194 -0.406667
v -0.500000 0.091194 -0.375539
v -0.500000 0.091194 0.375539
v -0.500000 0.091194 0.406667
v -0.500000 0.121631 -0.406667
v -0.477778 0.121631 -0.375539
v -0.477778 0.121631 0.375539
v -0.500000 0.121631 0.406667
v -0.500000 0.878369 -0.406667
v -0.477778 0.878369 -0.375539
v -0.477778 0.878369 0.375539
v -0.500000 0.878369 0.406667
v -0.500000 0.908806 -0.406667
v -0.500000 0.908806 -0.375539
v -0.500000 0.908806 0.375539
v -0.500000 0.908806 0.406667
vt 0.012768 0.021133
vt 0.104277 0.021133
vt 0.104277 0.109452
vt 0.012768 0.109452
vt 0.134796 0.021133
vt 0.134796 0.109452
vt 0.104277 0.138928
vt 0.012768 0.138928
vt 0.871192 0.021133
vt 0.871192 0.109452
vt 0.134796 0.138928
vt 0.104277 0.871808
vt 0.012768 0.871808
vt 0.901711 0.021133
vt 0.901711 0.109452
vt 0.871192 0.138928
vt 0.134796 0.871808
vt 0.104277 0.901285
vt 0.012768 0.901285
vt 0.993220 0.021133
vt 0.993220 0.109452
vt 0.901711 0.138928
vt 0.871192 0.871808
vt 0.134796 0.901285
vt 0.104277 0.989604
vt 0.012768 0.989604
vt 0.993220 0.138928
vt 0.901711 0.871808
vt 0.871192 0.901285
vt 0.134796 0.989604
vt 0.993220 0.871808
vt 0.901711 0.901285
vt 0.871192 0.989604
vt 0.993220 0.901285
vt 0.901711 0.989604
vt 0.993220 0.989604
vt 0.015361 0.025048
vt 0.106470 0.025048
vt 0.106470 0.115079
vt 0.015361 0.115079
vt 0.136855 0.025048
vt 0.136855 0.115079
vt 0.106470 0.145106
vt 0.015361 0.145106
vt 0.870034 0.025048
vt 0.870034 0.115079
vt 0.136855 0.145106
vt 0.106470 0.869613
vt 0.015361 0.869613
vt 0.900420 0.025048
vt 0.900420 0.115079
vt 0.870034 0.145106
vt 0.136855 0.869613
vt 0.106470 0.899639
vt 0.015361 0.899639
vt 0.991529 0.025048
vt 0.991529 0.115079
vt 0.900420 0.145106
vt 0.870034 0.869613
vt 0.136855 0.899639
vt 0.106470 0.989671
vt 0.015361 0.989671
vt 0.991529 0.145106
vt 0.900420 0.869613
vt 0.870034 0.899639
vt 0.136855 0.989671
vt 0.991529 0.869613
vt 0.900420 0.899639
vt 0.870034 0.989671
vt 0.991529 0.899639
vt 0.900420 0.989671
vt 0.991529 0.989671
vt 0.013436 0.011502
vt 0.104945 0.011502
vt 0.104945 0.100913
vt 0.013436 0.100913
vt 0.135464 0.011502
vt 0.135464 0.100913
vt 0.104945 0.130755
vt 0.013436 0.130755
vt 0.871861 0.011502
vt 0.871861 0.100913
vt 0.135464 0.130755
vt 0.104945 0.872701
vt 0.013436 0.872701
vt 0.902380 0.011502
vt 0.902380 0.100913
vt 0.871861 0.130755
vt 0.135464 0.872701
vt 0.104945 0.902543
vt 0.013436 0.902543
vt 0.993889 0.011502
vt 0.993889 0.100913
vt 0.902380 0.130755
vt 0.871861 0.872701
vt 0.135464 0.902543
vt 0.104945 0.991954
vt 0.013436 0.991954
vt 0.993889 0.130755
vt 0.902380 0.872701
vt 0.871861 0.902543
vt 0.135464 0.991954
vt 0.993889 0.872701
vt 0.902380 0.902543
vt 0.871861 0.991954
vt 0.993889 0.902543
vt 0.902380 0.991954
vt 0.993889 0.991954
vt 0.011429 0.016769
vt 0.102935 0.016769
vt 0.102935 0.107905
vt 0.011429 0.107905
vt 0.133454 0.016769
vt 0.133454 0.107905
vt 0.102935 0.138300
vt 0.011429 0.138300
vt 0.869830 0.016769
vt 0.869830 0.107905
vt 0.133454 0.138300
vt 0.102935 0.871696
vt 0.011429 0.871696
vt 0.900348 0.016769
vt 0.900348 0.107905
vt 0.869830 0.138300
vt 0.133454 0.871696
vt 0.102935 0.902091
vt 0.011429 0.902091
vt 0.991854 0.016769
vt 0.991854 0.107905
vt 0.900348 0.138300
vt 0.869830 0.871696
vt 0.133454 0.902091
vt 0.102935 0.993227
vt 0.011429 0.993227
vt 0.991854 0.138300
vt 0.900348 0.871696
vt 0.869830 0.902091
vt 0.133454 0.993227
vt 0.991854 0.871696
vt 0.900348 0.902091
vt 0.869830 0.993227
vt 0.991854 0.902091
vt 0.900348 0.993227
vt 0.991854 0.993227
vt 0.905052 0.023953
vt 0.997064 0.023953
vt 0.997064 0.111865
vt 0.905052 0.111865
vt 0.997064 0.141206
vt 0.905052 0.141206
vt 0.874364 0.023953
vt 0.874364 0.111865
vt 0.997064 0.870715
vt 0.905052 0.870715
vt 0.874364 0.141206
vt 0.133917 0.023953
vt 0.133917 0.111865
vt 0.997064 0.900056
vt 0.905052 0.900056
vt 0.874364 0.870715
vt 0.133917 0.141206
vt 0.103230 0.023953
vt 0.103230 0.111865
vt 0.997064 0.987968
vt 0.905052 0.987968
vt 0.874364 0.900056
vt 0.133917 0.870715
vt 0.103230 0.141206
vt 0.011218 0.023953
vt 0.011218 0.111865
vt 0.874364 0.987968
vt 0.133917 0.900056
vt 0.103230 0.870715
vt 0.011218 0.141206
vt 0.133917 0.987968
vt 0.103230 0.900056
vt 0.011218 0.870715
vt 0.103230 0.987968
vt 0.011218 0.900056
vt 0.011218 0.987968
vt 0.009046 0.013946
vt 0.100910 0.013946
vt 0.100910 0.102993
vt 0.009046 0.102993
vt 0.131547 0.013946
vt 0.131547 0.102993
vt 0.100910 0.132713
vt 0.009046 0.132713
vt 0.870797 0.013946
vt 0.870797 0.102993
vt 0.131547 0.132713
vt 0.100910 0.871637
vt 0.009046 0.871637
vt 0.901435 0.013946
vt 0.901435 0.102993
vt 0.870797 0.132713
vt 0.131547 0.871637
vt 0.100910 0.901357
vt 0.009046 0.901357
vt 0.993299 0.013946
vt 0.993299 0.102993
vt 0.901435 0.132713
vt 0.870797 0.871637
vt 0.131547 0.901357
vt 0.100910 0.990405
vt 0.009046 0.990405
vt 0.993299 0.132713
vt 0.901435 0.871637
vt 0.870797 0.901357
vt 0.131547 0.990405
vt 0.993299 0.871637
vt 0.901435 0.901357
vt 0.870797 0.990405
vt 0.993299 0.901357
vt 0.901435 0.990405
vt 0.993299 0.990405
vn 0.000000 0.000000 1.000000
vn 0.000000 0.000000 1.000000
vn 0.020449 0.020914 0.999572
vn 0.000000 0.000000 1.000000
vn 0.000000 0.000000 1.000000
vn 0.003212 0.161822 0.986815
vn 0.000000 0.000000 1.000000
vn -0.003212 0.161822 0.986815
vn 0.000000 0.000000 1.000000
vn -0.020449 0.020914 0.999572
vn 0.000000 0.000000 1.000000
vn 0.000000 0.000000 1.000000
vn 0.158325 0.003192 0.987382
vn 0.000000 0.000000 1.000000
vn 0.025406 0.025228 0.999359
vn -0.025406 0.025228 0.999359
vn -0.158325 0.003192 0.987382
vn 0.000000 0.000000 1.000000
vn 0.158325 -0.003192 0.987382
vn 0.000000 0.000000 1.000000
vn 0.025406 -0.025228 0.999359
vn -0.025406 -0.025228 0.999359
vn -0.158325 -0.003192 0.987382
vn 0.000000 0.000000 1.000000
vn 0.020449 -0.020914 0.999572
vn 0.000000 0.000000 1.000000
vn 0.003212 -0.161822 0.986815
vn -0.003212 -0.161822 0.986815
vn -0.020449 -0.020914 0.999572
vn 0.000000 0.000000 1.000000
vn 0.000000 0.000000 1.000000
vn 0.000000 0.000000 1.000000
vn 0.000000 0.000000 1.000000
vn 0.000000 0.000000 1.000000
vn 0.000000 0.000000 1.000000
vn 0.000000 0.000000 1.000000
vn 0.000000 1.000000 0.000000
vn 0.000000 1.000000 0.000000
vn 0.022725 0.999483 -0.022725
vn 0.000000 1.000000 0.000000
vn 0.000000 1.000000 0.000000
vn 0.003562 0.984484 -0.175437
vn 0.000000 1.000000 0.000000
vn -0.003562 0.984484 -0.175437
vn 0.000000 1.000000 0.000000
vn -0.022725 0.999484 -0.022725
vn 0.000000 1.000000 0.000000
vn 0.000000 1.000000 0.000000
vn 0.175437 0.984484 -0.003562
vn 0.000000 1.000000 0.000000
vn 0.028213 0.999204 -0.028213
vn -0.028213 0.999204 -0.028213
vn -0.175437 0.984484 -0.003562
vn 0.000000 1.000000 0.000000
vn 0.175437 0.984484 0.003562
vn 0.000000 1.000000 0.000000
vn 0.028213 0.999204 0.028213
vn -0.028213 0.999204 0.028213
vn -0.175437 0.984484 0.003562
vn 0.000000 1.000000 0.000000
vn 0.022725 0.999483 0.022725
vn 0.000000 1.000000 0.000000
vn 0.003562 0.984484 0.175437
vn -0.003562 0.984484 0.175437
vn -0.022725 0.999484 0.022725
vn 0.000000 1.000000 0.000000
vn 0.000000 1.000000 0.000000
vn 0.000000 1.000000 0.000000
vn 0.000000 1.000000 0.000000
vn 0.000000 1.000000 0.000000
vn 0.000000 1.000000 0.000000
vn 0.000000 1.000000 0.000000
vn 0.000000 0.000000 -1.000000
vn 0.000000 0.000000 -1.000000
vn 0.020449 -0.020914 -0.999572
vn 0.000000 0.000000 -1.000000
vn 0.000000 0.000000 -1.000000
vn 0.003212 -0.161822 -0.986815
vn 0.000000 0.000000 -1.000000
vn -0.003212 -0.161822 -0.986815
vn 0.000000 0.000000 -1.000000
vn -0.020449 -0.020914 -0.999572
vn 0.000000 0.000000 -1.000000
vn 0.000000 0.000000 -1.000000
vn 0.158325 -0.003192 -0.987382
vn 0.000000 0.000000 -1.000000
vn 0.025406 -0.025228 -0.999359
vn -0.025406 -0.025228 -0.999359
vn -0.158325 -0.003192 -0.987382
vn 0.000000 0.000000 -1.000000
vn 0.158325 0.003192 -0.987382
vn 0.000000 0.000000 -1.000000
vn 0.025406 0.025228 -0.999359
vn -0.025406 0.025228 -0.999359
vn -0.158325 0.003192 -0.987382
vn 0.000000 0.000000 -1.000000
vn 0.020449 0.020914 -0.999572
vn 0.000000 0.000000 -1.000000
vn 0.003212 0.161822 -0.986815
vn -0.003212 0.161822 -0.986815
vn -0.020449 0.020914 -0.999572
vn 0.000000 0.000000 -1.000000
vn 0.000000 0.000000 -1.000000
vn 0.000000 0.000000 -1.000000
vn 0.000000 0.000000 -1.000000
vn 0.000000 0.000000 -1.000000
vn 0.000000 0.000000 -1.000000
vn 0.000000 0.000000 -1.000000
vn 0.000000 -1.000000 0.000000
vn 0.000000 -1.000000 0.000000
vn 0.022725 -0.999483 0.022725
vn 0.000000 -1.000000 0.000000
vn 0.000000 -1.000000 0.000000
vn 0.003562 -0.984484 0.175437
vn 0.000000 -1.000000 0.000000
vn -0.003562 -0.984484 0.175437
vn 0.000000 -1.000000 0.000000
vn -0.022725 -0.999484 0.022725
vn 0.000000 -1.000000 0.000000
vn 0.000000 -1.000000 0.000000
vn 0.175437 -0.984484 0.003562
vn 0.000000 -1.000000 0.000000
vn 0.028213 -0.999204 0.028213
vn -0.028213 -0.999204 0.028213
vn -0.175437 -0.984484 0.003562
vn 0.000000 -1.000000 0.000000
vn 0.175437 -0.984484 -0.003562
vn 0.000000 -1.000000 0.000000
vn 0.028213 -0.999204 -0.028213
vn -0.028213 -0.999204 -0.028213
vn -0.175437 -0.984484 -0.003562
vn 0.000000 -1.000000 0.000000
vn 0.022725 -0.999483 -0.022725
vn 0.000000 -1.000000 0.000000
vn 0.003562 -0.984484 -0.175437
vn -0.003562 -0.984484 -0.175437
vn -0.022725 -0.999484 -0.022725
vn 0.000000 -1.000000 0.000000
vn 0.000000 -1.000000 0.000000
vn 0.000000 -1.000000 0.000000
vn 0.000000 -1.000000 0.000000
vn 0.000000 -1.000000 0.000000
vn 0.000000 -1.000000 0.000000
vn 0.000000 -1.000000 0.000000
vn 1.000000 0.000000 0.000000
vn 1.000000 0.000000 0.000000
vn 1.000000 0.000000 0.000000
vn 0.999490 0.022835 0.022328
vn 1.000000 0.000000 0.000000
vn 0.984337 0.176263 0.003499
vn 1.000000 0.000000 0.000000
vn 0.984337 0.176263 -0.003499
vn 1.000000 0.000000 0.000000
vn 0.999490 0.022835 -0.022328
vn 1.000000 0.000000 0.000000
vn 1.000000 0.000000 0.000000
vn 1.000000 0.000000 0.000000
vn 0.985008 0.003477 0.172471
vn 0.999236 0.027532 0.027727
vn 0.999236 0.027532 -0.027727
vn 0.985008 0.003477 -0.172471
vn 1.000000 0.000000 0.000000
vn 1.000000 0.000000 0.000000
vn 0.985008 -0.003477 0.172471
vn 0.999236 -0.027532 0.027727
vn 0.999236 -0.027532 -0.027727
vn 0.985008 -0.003477 -0.172471
vn 1.000000 0.000000 0.000000
vn 1.000000 0.000000 0.000000
vn 0.999490 -0.022835 0.022328
vn 0.984337 -0.176263 0.003499
vn 0.984337 -0.176262 -0.003499
vn 0.999490 -0.022835 -0.022328
vn 1.000000 0.000000 0.000000
vn 1.000000 0.000000 0.000000
vn 1.000000 0.000000 0.000000
vn 1.000000 0.000000 0.000000
vn 1.000000 0.000000 0.000000
vn 1.000000 0.000000 0.000000
vn 1.000000 0.000000 0.000000
vn -1.000000 0.000000 0.000000
vn -1.000000 0.000000 0.000000
vn -0.999490 0.022835 0.022328
vn -1.000000 0.000000 0.000000
vn -1.000000 0.000000 0.000000
vn -0.984337 0.176263 0.003499
vn -1.000000 0.000000 0.000000
vn -0.984337 0.176263 -0.003499
vn -1.000000 0.000000 0.000000
vn -0.999490 0.022835 -0.022328
vn -1.000000 0.000000 0.000000
vn -1.000000 0.000000 0.000000
vn -0.985008 0.003477 0.172471
vn -1.000000 0.000000 0.000000
vn -0.999236 0.027532 0.027727
vn -0.999236 0.027532 -0.027727
vn -0.985008 0.003477 -0.172471
vn -1.000000 0.000000 0.000000
vn -0.985008 -0.003477 0.172471
vn -1.000000 0.000000 0.000000
vn -0.999236 -0.027532 0.027727
vn -0.999236 -0.027532 -0.027727
vn -0.985008 -0.003477 -0.172471
vn -1.000000 0.000000 0.000000
vn -0.999490 -0.022835 0.022328
vn -1.000000 0.000000 0.000000
vn -0.984337 -0.176263 0.003499
vn -0.984337 -0.176262 -0.003499
vn -0.999490 -0.022835 -0.022328
vn -1.000000 0.000000 0.000000
vn -1.000000 0.000000 0.000000
vn -1.000000 0.000000 0.000000
vn -1.000000 0.000000 0.000000
vn -1.000000 0.000000 0.000000
vn -1.000000 0.000000 0.000000
vn -1.000000 0.000000 0.000000
s 1
g pCube1
usemtl initialShadingGroup
f 1/1/1 2/2/2 8/3/3 7/4/4
f 2/2/2 3/5/5 9/6/6 8/3/3
f 3/5/5 4/9/7 10/10/8 9/6/6
f 4/9/7 5/14/9 11/15/10 10/10/8
f 5/14/9 6/20/11 12/21/12 11/15/10
f 7/4/4 8/3/3 14/7/13 13/8/14
f 8/3/3 9/6/6 15/11/15 14/7/13
f 9/6/6 10/10/8 16/16/16 15/11/15
f 10/10/8 11/15/10 17/22/17 16/16/16
f 11/15/10 12/21/12 18/27/18 17/22/17
f 13/8/14 14/7/13 20/12/19 19/13/20
f 14/7/13 15/11/15 21/17/21 20/12/19
f 15/11/15 16/16/16 22/23/22 21/17/21
f 16/16/16 17/22/17 23/28/23 22/23/22
f 17/22/17 18/27/18 24/31/24 23/28/23
f 19/13/20 20/12/19 26/18/25 25/19/26
f 20/12/19 21/17/21 27/24/27 26/18/25
f 21/17/21 22/23/22 28/29/28 27/24/27
f 22/23/22 23/28/23 29/32/29 28/29/28
f 23/28/23 24/31/24 30/34/30 29/32/29
f 25/19/26 26/18/25 32/25/31 31/26/32
f 26/18/25 27/24/27 33/30/33 32/25/31
f 27/24/27 28/29/28 34/33/34 33/30/33
f 28/29/28 29/32/29 35/35/35 34/33/34
f 29/32/29 30/34/30 36/36/36 35/35/35
s 2
f 31/37/37 32/38/38 38/39/39 37/40/40
f 32/38/38 33/41/41 39/42/42 38/39/39
f 33/41/41 34/45/43 40/46/44 39/42/42
f 34/45/43 35/50/45 41/51/46 40/46/44
f 35/50/45 36/56/47 42/57/48 41/51/46
f 37/40/40 38/39/39 44/43/49 43/44/50
f 38/39/39 39/42/42 45/47/51 44/43/49
f 39/42/42 40/46/44 46/52/52 45/47/51
f 40/46/44 41/51/46 47/58/53 46/52/52
f 41/51/46 42/57/48 48/63/54 47/58/53
f 43/44/50 44/43/49 50/48/55 49/49/56
f 44/43/49 45/47/51 51/53/57 50/48/55
f 45/47/51 46/52/52 52/59/58 51/53/57
f 46/52/52 47/58/53 53/64/59 52/59/58
f 47/58/53 48/63/54 54/67/60 53/64/59
f 49/49/56 50/48/55 56/54/61 55/55/62
f 50/48/55 51/53/57 57/60/63 56/54/61
f 51/53/57 52/59/58 58/65/64 57/60/63
f 52/59/58 53/64/59 59/68/65 58/65/64
f 53/64/59 54/67/60 60/70/66 59/68/65
f 55/55/62 56/54/61 62/61/67 61/62/68
f 56/54/61 57/60/63 63/66/69 62/61/67
f 57/60/63 58/65/64 64/69/70 63/66/69
f 58/65/64 59/68/65 65/71/71 64/69/70
f 59/68/65 60/70/66 66/72/72 65/71/71
s 3
f 61/73/73 62/74/74 68/75/75 67/76/76
f 62/74/74 63/77/77 69/78/78 68/75/75
f 63/77/77 64/81/79 70/82/80 69/78/78
f 64/81/79 65/86/81 71/87/82 70/82/80
f 65/86/81 66/92/83 72/93/84 71/87/82
f 67/76/76 68/75/75 74/79/85 73/80/86
f 68/75/75 69/78/78 75/83/87 74/79/85
f 69/78/78 70/82/80 76/88/88 75/83/87
f 70/82/80 71/87/82 77/94/89 76/88/88
f 71/87/82 72/93/84 78/99/90 77/94/89
f 73/80/86 74/79/85 80/84/91 79/85/92
f 74/79/85 75/83/87 81/89/93 80/84/91
f 75/83/87 76/88/88 82/95/94 81/89/93
f 76/88/88 77/94/89 83/100/95 82/95/94
f 77/94/89 78/99/90 84/103/96 83/100/95
f 79/85/92 80/84/91 86/90/97 85/91/98
f 80/84/91 81/89/93 87/96/99 86/90/97
f 81/89/93 82/95/94 88/101/100 87/96/99
f 82/95/94 83/100/95 89/104/101 88/101/100
f 83/100/95 84/103/96 90/106/102 89/104/101
f 85/91/98 86/90/97 92/97/103 91/98/104
f 86/90/97 87/96/99 93/102/105 92/97/103
f 87/96/99 88/101/100 94/105/106 93/102/105
f 88/101/100 89/104/101 95/107/107 94/105/106
f 89/104/101 90/106/102 96/108/108 95/107/107
s 4
f 91/109/109 92/110/110 98/111/111 97/112/112
f 92/110/110 93/113/113 99/114/114 98/111/111
f 93/113/113 94/117/115 100/118/116 99/114/114
f 94/117/115 95/122/117 101/123/118 100/118/116
f 95/122/117 96/128/119 102/129/120 101/123/118
f 97/112/112 98/111/111 104/115/121 103/116/122
f 98/111/111 99/114/114 105/119/123 104/115/121
f 99/114/114 100/118/116 106/124/124 105/119/123
f 100/118/116 101/123/118 107/130/125 106/124/124
f 101/123/118 102/129/120 108/135/126 107/130/125
f 103/116/122 104/115/121 110/120/127 109/121/128
f 104/115/121 105/119/123 111/125/129 110/120/127
f 105/119/123 106/124/124 112/131/130 111/125/129
f 106/124/124 107/130/125 113/136/131 112/131/130
f 107/130/125 108/135/126 114/139/132 113/136/131
f 109/121/128 110/120/127 116/126/133 115/127/134
f 110/120/127 111/125/129 117/132/135 116/126/133
f 111/125/129 112/131/130 118/137/136 117/132/135
f 112/131/130 113/136/131 119/140/137 118/137/136
f 113/136/131 114/139/132 120/142/138 119/140/137
f 115/127/134 116/126/133 2/133/139 1/134/140
f 116/126/133 117/132/135 3/138/141 2/133/139
f 117/132/135 118/137/136 4/141/142 3/138/141
f 118/137/136 119/140/137 5/143/143 4/141/142
f 119/140/137 120/142/138 6/144/144 5/143/143
s 5
f 102/145/145 96/146/146 90/147/147 121/148/148
f 108/151/149 102/145/145 121/148/148 122/152/150
f 114/156/151 108/151/149 122/152/150 123/157/152
f 120/162/153 114/156/151 123/157/152 124/163/154
f 6/169/155 120/162/153 124/163/154 12/170/156
f 121/148/148 90/147/147 84/149/157 125/150/158
f 122/152/150 121/148/148 125/150/158 126/155/159
f 123/157/152 122/152/150 126/155/159 127/161/160
f 124/163/154 123/157/152 127/161/160 128/168/161
f 12/170/156 124/163/154 128/168/161 18/174/162
f 125/150/158 84/149/157 78/153/163 129/154/164
f 126/155/159 125/150/158 129/154/164 130/160/165
f 127/161/160 126/155/159 130/160/165 131/167/166
f 128/168/161 127/161/160 131/167/166 132/173/167
f 18/174/162 128/168/161 132/173/167 24/177/168
f 129/154/164 78/153/163 72/158/169 133/159/170
f 130/160/165 129/154/164 133/159/170 134/166/171
f 131/167/166 130/160/165 134/166/171 135/172/172
f 132/173/167 131/167/166 135/172/172 136/176/173
f 24/177/168 132/173/167 136/176/173 30/179/174
f 133/159/170 72/158/169 66/164/175 60/165/176
f 134/166/171 133/159/170 60/165/176 54/171/177
f 135/172/172 134/166/171 54/171/177 48/175/178
f 136/176/173 135/172/172 48/175/178 42/178/179
f 30/179/174 136/176/173 42/178/179 36/180/180
s 6
f 91/181/181 97/182/182 137/183/183 85/184/184
f 97/182/182 103/185/185 138/186/186 137/183/183
f 103/185/185 109/189/187 139/190/188 138/186/186
f 109/189/187 115/194/189 140/195/190 139/190/188
f 115/194/189 1/200/191 7/201/192 140/195/190
f 85/184/184 137/183/183 141/187/193 79/188/194
f 137/183/183 138/186/186 142/191/195 141/187/193
f 138/186/186 139/190/188 143/196/196 142/191/195
f 139/190/188 140/195/190 144/202/197 143/196/196
f 140/195/190 7/201/192 13/207/198 144/202/197
f 79/188/194 141/187/193 145/192/199 73/193/200
f 141/187/193 142/191/195 146/197/201 145/192/199
f 142/191/195 143/196/196 147/203/202 146/197/201
f 143/196/196 144/202/197 148/208/203 147/203/202
f 144/202/197 13/207/198 19/211/204 148/208/203
f 73/193/200 145/192/199 149/198/205 67/199/206
f 145/192/199 146/197/201 150/204/207 149/198/205
f 146/197/201 147/203/202 151/209/208 150/204/207
f 147/203/202 148/208/203 152/212/209 151/209/208
f 148/208/203 19/211/204 25/214/210 152/212/209
f 67/199/206 149/198/205 55/205/211 61/206/212
f 149/198/205 150/204/207 49/210/213 55/205/211
f 150/204/207 151/209/208 43/213/214 49/210/213
f 151/209/208 152/212/209 37/215/215 43/213/214
f 152/212/209 25/214/210 31/216/216 37/215/215
