# This file uses centimeters as units for non-parametric coordinates.

mtllib floor.mtl
g default
v -1.000000 -0.100000 1.000000
v 1.000000 -0.100000 1.000000
v -1.000000 0.100000 1.000000
v 1.000000 0.100000 1.000000
v -1.000000 0.100000 -1.000000
v 1.000000 0.100000 -1.000000
v -1.000000 -0.100000 -1.000000
v 1.000000 -0.100000 -1.000000
vt 0.001868 0.498129
vt 0.001868 0.001992
vt 0.051481 0.001992
vt 0.051481 0.498129
vt 0.002381 0.000510
vt 0.995621 0.005306
vt 0.997992 0.995679
vt 0.002212 0.997823
vt 0.561229 0.498129
vt 0.561229 0.001992
vt 0.610843 0.001992
vt 0.610843 0.498129
vt 0.002859 0.003746
vt 0.999202 0.008569
vt 0.997528 0.998008
vt 0.002539 0.998008
vt 0.384252 0.998008
vt 0.384252 0.501871
vt 0.433865 0.501871
vt 0.433865 0.998008
vt 0.328886 0.998008
vt 0.328886 0.501871
vt 0.378499 0.501871
vt 0.378499 0.998008
vn 0.000000 0.000000 1.000000
vn 0.000000 0.000000 1.000000
vn 0.000000 0.000000 1.000000
vn 0.000000 0.000000 1.000000
vn 0.000000 1.000000 0.000000
vn 0.000000 1.000000 0.000000
vn 0.000000 1.000000 0.000000
vn 0.000000 1.000000 0.000000
vn 0.000000 0.000000 -1.000000
vn 0.000000 0.000000 -1.000000
vn 0.000000 0.000000 -1.000000
vn 0.000000 0.000000 -1.000000
vn 0.000000 -1.000000 0.000000
vn 0.000000 -1.000000 0.000000
vn 0.000000 -1.000000 0.000000
vn 0.000000 -1.000000 0.000000
vn 1.000000 0.000000 0.000000
vn 1.000000 0.000000 0.000000
vn 1.000000 0.000000 0.000000
vn 1.000000 0.000000 0.000000
vn -1.000000 0.000000 0.000000
vn -1.000000 0.000000 0.000000
vn -1.000000 0.000000 0.000000
vn -1.000000 0.000000 0.000000
s off
g pCube2
usemtl initialShadingGroup
f 1/1/1 2/2/2 4/3/3 3/4/4
f 3/5/5 4/6/6 6/7/7 5/8/8
f 5/9/9 6/10/10 8/11/11 7/12/12
f 7/13/13 8/14/14 2/15/15 1/16/16
f 2/17/17 8/18/18 6/19/19 4/20/20
f 7/21/21 1/22/22 3/23/23 5/24/24
