# Alias OBJ Model File
# Exported from SketchUp, (c) 2000-2012 Trimble Navigation Limited
# File units = meters

mtllib arch.mtl

g Mesh1 Model

usemtl FrontColor
v 0 2 -2
vt -78.7402 78.7402
vn -1 0 -0
v 0 1.2 -2
vt -78.7402 47.2441
v 0 1.36302 -1.88337
vt -74.1484 53.6624
v 0 1.50358 -1.74046
vt -68.522 59.1962
v 0 1.61749 -1.57552
vt -62.0284 63.6809
v 0 1.70137 -1.39346
vt -54.8608 66.983
v 0 1.75271 -1.1997
vt -47.2324 69.0045
v 0 1.77 -1
vt -39.3701 69.685
v 0 1.75271 -0.800298
vt -31.5078 69.0045
v 0 1.70137 -0.606536
vt -23.8794 66.983
v 0 1.61749 -0.424478
vt -16.7118 63.6809
v 0 1.50358 -0.259542
vt -10.2182 59.1962
v 0 1.36302 -0.116632
vt -4.5918 53.6624
v 0 1.2 -0
vt 0 47.2441
v 0 2 -0
vt 0 78.7402
f 1/1/1 2/2/1 3/3/1 4/4/1 5/5/1 6/6/1 7/7/1 8/8/1 9/9/1 10/10/1 11/11/1 12/12/1 13/13/1 14/14/1 15/15/1 

vn 0 0 -1
v 2 2 -2
v 2 1.2 -2
f 2/14/2 1/15/2 16/1/2 17/2/2 

vn 0 1 -0
vt 0 0
v 2 2 -0
vt 78.7402 0
vt 78.7402 78.7402
f 1/15/3 15/16/3 18/17/3 16/18/3 

vn 0 0 1
v 2 1.2 -0
vt 78.7402 47.2441
f 15/15/4 14/14/4 19/19/4 18/18/4 

vt 0 38.4234
vn 0 -0.581852 -0.813295
vt 0 46.3151
vn 0 -0.649821 -0.760087
v 2 1.36302 -0.116632
vt -78.7402 46.3151
vt -78.7402 38.4234
f 14/20/5 13/21/6 20/22/6 19/23/5 

vt 0 40.9027
vt 0 48.7944
vn 0 -0.770763 -0.637122
v 2 1.50358 -0.259542
vt -78.7402 48.7944
vt -78.7402 40.9027
f 13/24/6 12/25/7 21/26/7 20/27/6 

vt 0 42.0478
vt 0 49.9395
vn 0 -0.868777 -0.495203
v 2 1.61749 -0.424478
vt -78.7402 49.9395
vt -78.7402 42.0478
f 12/28/7 11/29/8 22/30/8 21/31/7 

vt 0 41.8248
vt 0 49.7165
vn 0 -0.940947 -0.338553
v 2 1.70137 -0.606536
vt -78.7402 49.7165
vt -78.7402 41.8248
f 11/32/8 10/33/9 23/34/9 22/35/8 

vt 0 40.2402
vt 0 48.1319
vn 0 -0.985126 -0.171832
v 2 1.75271 -0.800298
vt -78.7402 48.1319
vt -78.7402 40.2402
f 10/36/9 9/37/10 24/38/10 23/39/9 

vt 0 37.3412
vt 0 45.2329
vn 0 -1 -5.57187e-017
v 2 1.77 -1
vt -78.7402 45.2329
vt -78.7402 37.3412
f 9/40/10 8/41/11 25/42/11 24/43/10 

vt 0 -33.2139
vt 0 -41.1056
vn 0 -0.985126 0.171832
v 2 1.75271 -1.1997
vt 78.7402 -41.1056
vt 78.7402 -33.2139
f 8/44/11 7/45/12 26/46/12 25/47/11 

vt 0 -27.9813
vt 0 -35.873
vn 0 -0.940947 0.338553
v 2 1.70137 -1.39346
vt 78.7402 -35.873
vt 78.7402 -27.9813
f 7/48/12 6/49/13 27/50/13 26/51/12 

vt 0 -21.7989
vt 0 -29.6906
vn 0 -0.868777 0.495203
v 2 1.61749 -1.57552
vt 78.7402 -29.6906
vt 78.7402 -21.7989
f 6/52/13 5/53/14 28/54/14 27/55/13 

vt 0 -14.8507
vt 0 -22.7424
vn 0 -0.770763 0.637122
v 2 1.50358 -1.74046
vt 78.7402 -22.7424
vt 78.7402 -14.8507
f 5/56/14 4/57/15 29/58/15 28/59/14 

vt 0 -7.34327
vt 0 -15.235
vn 0 -0.649821 0.760087
v 2 1.36302 -1.88337
vt 78.7402 -15.235
vt 78.7402 -7.34327
f 4/60/15 3/61/16 30/62/16 29/63/15 

vt 0 0.499953
vt 0 -7.39175
vn 0 -0.581852 0.813295
vt 78.7402 -7.39175
vt 78.7402 0.499953
f 3/64/16 2/65/17 17/66/17 30/67/16 

vn 1 0 -0
vt 4.5918 53.6624
vt 10.2182 59.1962
vt 16.7118 63.6809
vt 23.8794 66.983
vt 31.5078 69.0045
vt 39.3701 69.685
vt 47.2324 69.0045
vt 54.8608 66.983
vt 62.0284 63.6809
vt 68.522 59.1962
vt 74.1484 53.6624
f 17/19/18 16/18/18 18/15/18 19/14/18 20/68/18 21/69/18 22/70/18 23/71/18 24/72/18 25/73/18 26/74/18 27/75/18 28/76/18 29/77/18 30/78/18 

